<svg width="21" height="17" viewBox="0 0 21 17" fill="none" xmlns="http://www.w3.org/2000/svg">
<path d="M19.3594 0.953217H1.64062C0.736025 0.953217 0 1.68924 0 2.59384V14.4063C0 15.3109 0.736025 16.047 1.64062 16.047H19.3594C20.264 16.047 21 15.3109 21 14.4063V2.59384C21 1.68924 20.264 0.953217 19.3594 0.953217Z" fill="#566673"/>
<path d="M7.21875 7.51572H3.28125C2.91879 7.51572 2.625 7.22192 2.625 6.85947V4.23447C2.625 3.87201 2.91879 3.57822 3.28125 3.57822H7.21875C7.5812 3.57822 7.875 3.87201 7.875 4.23447V6.85947C7.875 7.22192 7.5812 7.51572 7.21875 7.51572Z" fill="#FFD100"/>
<path d="M4.92188 11.7813H3.28125C2.91879 11.7813 2.625 11.4875 2.625 11.1251V10.797C2.625 10.4345 2.91879 10.1407 3.28125 10.1407H4.92188C5.28433 10.1407 5.57812 10.4345 5.57812 10.797V11.1251C5.57812 11.4875 5.28433 11.7813 4.92188 11.7813Z" fill="#B8BAC0"/>
<path d="M9.1875 11.7813H7.54688C7.18442 11.7813 6.89062 11.4875 6.89062 11.1251V10.797C6.89062 10.4345 7.18442 10.1407 7.54688 10.1407H9.1875C9.54996 10.1407 9.84375 10.4345 9.84375 10.797V11.1251C9.84375 11.4875 9.54996 11.7813 9.1875 11.7813Z" fill="#B8BAC0"/>
<path d="M13.4531 11.7813H11.8125C11.45 11.7813 11.1562 11.4875 11.1562 11.1251V10.797C11.1562 10.4345 11.45 10.1407 11.8125 10.1407H13.4531C13.8156 10.1407 14.1094 10.4345 14.1094 10.797V11.1251C14.1094 11.4875 13.8156 11.7813 13.4531 11.7813Z" fill="#B8BAC0"/>
<path d="M17.7188 11.7813H16.0781C15.7157 11.7813 15.4219 11.4875 15.4219 11.1251V10.797C15.4219 10.4345 15.7157 10.1407 16.0781 10.1407H17.7188C18.0812 10.1407 18.375 10.4345 18.375 10.797V11.1251C18.375 11.4875 18.0812 11.7813 17.7188 11.7813Z" fill="#B8BAC0"/>
<path d="M9.51562 13.7501H2.95312C2.77175 13.7501 2.625 13.6032 2.625 13.422C2.625 13.2408 2.77175 13.0938 2.95312 13.0938H9.51562C9.697 13.0938 9.84375 13.2408 9.84375 13.422C9.84375 13.6032 9.697 13.7501 9.51562 13.7501Z" fill="#8A8895"/>
<path d="M13.7812 13.7501H10.8281C10.6468 13.7501 10.5 13.6032 10.5 13.422C10.5 13.2408 10.6468 13.0938 10.8281 13.0938H13.7812C13.9626 13.0938 14.1094 13.2408 14.1094 13.422C14.1094 13.6032 13.9626 13.7501 13.7812 13.7501Z" fill="#8A8895"/>
<path d="M7.875 5.87509H4.59375V5.21884H7.875V4.56259H4.59375V3.57822H3.9375V7.51572H4.59375V6.53134H7.875V5.87509Z" fill="#FF9500"/>
</svg>
