<svg width="21" height="15" viewBox="0 0 21 15" fill="none" xmlns="http://www.w3.org/2000/svg">
<path d="M20.9908 3.48469C21.0746 1.74073 20.2026 0.937714 17.7492 0.937714H7.13763C4.67933 0.937714 3.40831 1.74073 2.625 3.48469H20.9908Z" fill="#FF8A35"/>
<path d="M13.9444 5.06076L13.5404 6.67171H8.6632L9.06717 5.06076H2.09623C2.09131 5.08539 2.08146 5.11002 2.07653 5.13466L0.706974 10.6326C-0.0172144 13.5293 0.549328 14.8299 3.68255 14.8299H17.5752L18.9349 11.5193C17.6885 12.0218 16.9544 12.1105 15.6243 12.1105H8.90952C7.78629 12.1105 7.44636 11.6967 7.66806 10.6917L7.9932 9.39111H19.6689L20.7281 5.13466C20.733 5.11002 20.7379 5.08539 20.7478 5.06076H13.9444Z" fill="#FF8A35"/>
</svg>
