<svg width="112" height="17" viewBox="0 0 112 17" fill="none" xmlns="http://www.w3.org/2000/svg">
<path d="M2.2647 3.89449H15.411L11.6094 4.68801L0.660156 12.3677V16.0587H17.5413L18.298 12.3677H5.14863L8.95335 11.5742L19.8995 3.89449V0.200439H3.01835L2.2647 3.89449Z" fill="black"/>
<path d="M20.8174 16.0587H25.628L27.9193 5.48753L25.2603 3.89449H28.0773L28.834 0.200439H24.0234L20.8174 16.0587Z" fill="black"/>
<path d="M36.0021 10.8137L38.2935 0.200439H32.9571L29.748 16.0587H45.0277L45.7844 12.3677H33.1638L36.0021 10.8137Z" fill="black"/>
<path d="M66.1006 1.16228C65.8544 0.867714 65.5536 0.633266 65.195 0.458933C64.8364 0.287606 64.4444 0.200439 64.0159 0.200439H52.9056C52.2644 0.200439 51.6961 0.395813 51.2008 0.789564C50.7024 1.18332 50.3955 1.69429 50.2739 2.3285L47.5024 16.0587H52.313L53.2308 11.5742H60.1717L59.2539 16.0587H64.0645L66.6294 3.35045C66.7205 2.94167 66.7175 2.55093 66.6172 2.1722C66.5169 1.79348 66.3437 1.45684 66.1006 1.16228ZM61.5878 4.5287L60.9223 7.85906H53.9601L54.6013 5.49054L51.9453 3.89449H61.0621C61.2292 3.89449 61.369 3.96062 61.4754 4.08686C61.5817 4.21611 61.6182 4.36339 61.5878 4.5287Z" fill="black"/>
<path d="M81.6531 12.7524L79.1095 0.200439H70.8193L67.6133 16.0587H72.4208L74.8033 5.1028L72.123 3.50976H74.9644L77.508 16.0587H85.7769L88.363 5.03667H83.5524L81.6531 12.7524Z" fill="black"/>
<path d="M111.155 2.1722C111.049 1.79348 110.876 1.45984 110.639 1.16228C110.402 0.867714 110.104 0.633266 109.745 0.458933C109.387 0.287606 108.995 0.200439 108.569 0.200439H95.0976H93.1314H84.6741L83.811 3.89449H92.3838L89.9223 16.0617H104.697C105.278 16.0617 105.828 15.9685 106.348 15.7792C106.867 15.5898 107.332 15.3253 107.746 14.9857C108.159 14.646 108.508 14.2433 108.8 13.7744C109.089 13.3055 109.289 12.7915 109.396 12.2324L111.204 3.35045C111.277 2.94167 111.262 2.55093 111.155 2.1722ZM106.138 4.5287L104.649 11.9379C104.573 12.2264 104.397 12.3677 104.123 12.3677H95.4896L97.0242 5.49054L94.5262 3.89449H95.0945H105.633C105.801 3.89449 105.934 3.96062 106.035 4.08686C106.135 4.21611 106.171 4.36339 106.138 4.5287Z" fill="black"/>
</svg>
