<svg width="142" height="20" viewBox="0 0 142 20" fill="none" xmlns="http://www.w3.org/2000/svg">
<path d="M4.28512 8.0028H23.7488C23.5249 6.30012 22.343 5.31079 19.9425 5.31079H13.9701C12.8767 5.31079 12.2154 6.09184 11.6843 6.84165H11.6218L11.7832 5.31079H4.16016C4.37885 5.96687 4.58192 6.5084 4.28512 8.0028Z" fill="white"/>
<path d="M11.2576 9.66895H3.88454L2.15582 16.6203C1.64554 18.651 1.12484 19.2446 0.5 19.9944H9.49767C9.24774 19.2446 9.01863 18.651 9.52892 16.6203L11.2576 9.66895Z" fill="white"/>
<path d="M16.3819 9.66895L14.648 16.6203C14.1429 18.651 13.617 19.2446 12.9922 19.9944H21.9899C21.7399 19.2446 21.5108 18.651 22.0211 16.6203L23.5103 10.6531C23.5936 10.3094 23.6561 9.98136 23.703 9.66895H16.3819Z" fill="white"/>
<path d="M137.314 9.68457H136.554V9.72102H123.063L122.521 11.9027C122.162 13.7148 122.266 15.4331 125.64 15.4331H132.045C132.794 15.4331 132.966 15.6205 132.82 16.2141L132.742 16.5266C132.597 17.1201 132.331 17.3076 131.581 17.3076H125.364C122.771 17.3076 122.172 17.0889 120.98 16.4641L120.662 19.9944H134.346C137.626 19.9944 139.251 17.9949 139.72 16.1204L140.454 13.1837C140.792 11.4029 140.688 9.68457 137.314 9.68457Z" fill="white"/>
<path d="M128.817 5.31079C126.448 5.31079 124.506 6.37822 123.615 8.05487H130.796C130.952 8.01842 131.134 7.9976 131.363 7.9976H137.08C138.799 7.9976 140.798 8.24753 141.215 8.9661L141.501 5.31079H128.817Z" fill="white"/>
<path d="M121.074 7.79492L121.694 5.31119H115.82L116.611 2.12451L109.192 2.31196L108.447 5.31119H105.292L104.672 7.79492H121.074Z" fill="white"/>
<path d="M114.342 17.1209C113.029 17.1209 112.936 16.871 113.17 15.9337L114.784 9.46143H107.411L105.927 15.4026C105.016 19.0579 106.812 19.9952 109.155 19.9952H118.403L119.731 16.5585C119.345 16.7148 118.372 17.1209 116.935 17.1209H114.342Z" fill="white"/>
<path d="M103.703 7.79492L104.322 5.31119H98.4489L99.2404 2.12451L91.8204 2.31196L91.0758 5.31119H87.9204L87.3008 7.79492H103.703Z" fill="white"/>
<path d="M96.9704 17.1209C95.6583 17.1209 95.5646 16.871 95.7989 15.9337L97.413 9.46143H90.0399L88.5559 15.4026C87.6447 19.0579 89.4411 19.9952 91.7843 19.9952H101.032L102.36 16.5585C101.98 16.7148 101.001 17.1209 99.5635 17.1209H96.9704Z" fill="white"/>
<path d="M87.5571 -0.000244141H80.309L79.3457 3.87375H86.5938L87.5571 -0.000244141Z" fill="white"/>
<path d="M78.2727 7.79501H85.6771L86.2967 5.31128H78.1113C78.3196 5.93612 78.5123 6.45682 78.2727 7.79501Z" fill="white"/>
<path d="M85.2602 9.46094H77.8871L76.1011 16.6205C75.5961 18.6513 75.0702 19.2449 74.4453 19.9947H83.443C83.193 19.2449 82.9639 18.6513 83.4742 16.6205L85.2602 9.46094Z" fill="white"/>
<path d="M55.7557 7.89891C55.7453 7.47194 55.7557 7.00331 55.8911 6.46699C56.0057 5.99836 56.1723 5.71718 56.3649 5.31104H47.6797C48.0494 6.17019 48.2212 6.58154 48.2889 7.89891H55.7557Z" fill="white"/>
<path d="M72.9023 7.89866H75.7193C76.2088 7.05513 76.8805 6.05539 77.6095 5.31079H73.548C73.6105 5.68569 73.5428 6.09184 73.4387 6.49798C73.3554 6.83644 73.1315 7.39359 72.9023 7.89866Z" fill="white"/>
<path d="M69.2572 7.89866L69.2052 5.31079H60.7386L59.4473 7.89866H69.2572Z" fill="white"/>
<path d="M72.069 9.5647L69.4603 14.6832H69.3978L69.2937 9.5647H61.9102L62.0768 19.9943H69.6998L74.8547 9.5647H72.069Z" fill="white"/>
<path d="M58.6145 9.5647L56.0579 14.6832H55.9954L55.8184 9.5647H48.3359L48.5494 19.9943H56.2662L61.4575 9.5647H58.6145Z" fill="white"/>
<path d="M46.0777 8.0028C46.1662 6.15953 45.2445 5.31079 42.6515 5.31079H31.4356C28.8373 5.31079 27.4939 6.15953 26.666 8.0028H46.0777Z" fill="#F1873A"/>
<path d="M38.6263 9.66895L38.1993 11.3716H33.0444L33.4714 9.66895H26.1035C26.0983 9.69498 26.0878 9.72101 26.0826 9.74705L24.6351 15.558C23.8697 18.6198 24.4685 19.9944 27.7801 19.9944H42.4638L43.9009 16.4953C42.5836 17.0264 41.8077 17.1201 40.4019 17.1201H33.3047C32.1175 17.1201 31.7583 16.6828 31.9926 15.6205L32.3362 14.2459H44.6768L45.7963 9.74705C45.8015 9.72101 45.8067 9.69498 45.8171 9.66895H38.6263Z" fill="#F1873A"/>
</svg>
