<svg width="141" height="21" viewBox="0 0 141 21" fill="none" xmlns="http://www.w3.org/2000/svg">
<path d="M3.78512 8.84649H23.2488C23.0249 7.14381 21.843 6.15448 19.4425 6.15448H13.4701C12.3767 6.15448 11.7154 6.93553 11.1843 7.68533H11.1218L11.2832 6.15448H3.66016C3.87885 6.81056 4.08192 7.35209 3.78512 8.84649Z" fill="black"/>
<path d="M10.7576 10.5124H3.38454L1.65582 17.4637C1.14554 19.4944 0.624838 20.088 0 20.8378H8.99767C8.74774 20.088 8.51863 19.4944 9.02892 17.4637L10.7576 10.5124Z" fill="black"/>
<path d="M15.8819 10.5124L14.148 17.4637C13.6429 19.4944 13.117 20.088 12.4922 20.8378H21.4899C21.2399 20.088 21.0108 19.4944 21.5211 17.4637L23.0103 11.4965C23.0936 11.1528 23.1561 10.8248 23.203 10.5124H15.8819Z" fill="black"/>
<path d="M136.814 10.5281H136.054V10.5645H122.563L122.021 12.7463C121.662 14.5583 121.766 16.2766 125.14 16.2766H131.545C132.294 16.2766 132.466 16.464 132.32 17.0576L132.242 17.3701C132.097 17.9637 131.831 18.1511 131.081 18.1511H124.864C122.271 18.1511 121.672 17.9324 120.48 17.3076L120.162 20.8379H133.846C137.126 20.8379 138.751 18.8384 139.22 16.9639L139.954 14.0272C140.292 12.2464 140.188 10.5281 136.814 10.5281Z" fill="black"/>
<path d="M128.315 6.15454C125.946 6.15454 124.004 7.22197 123.113 8.89862H130.294C130.45 8.86217 130.632 8.84135 130.861 8.84135H136.579C138.297 8.84135 140.296 9.09128 140.713 9.80985L140.999 6.15454H128.315Z" fill="black"/>
<path d="M120.574 8.63837L121.194 6.15463H115.32L116.111 2.96796L108.692 3.15541L107.947 6.15463H104.792L104.172 8.63837H120.574Z" fill="black"/>
<path d="M113.842 17.9643C112.529 17.9643 112.436 17.7144 112.67 16.7772L114.284 10.3049H106.911L105.427 16.246C104.516 19.9013 106.312 20.8386 108.655 20.8386H117.903L119.231 17.402C118.845 17.5582 117.872 17.9643 116.435 17.9643H113.842Z" fill="black"/>
<path d="M103.203 8.6383L103.822 6.15457H97.9489L98.7404 2.9679L91.3204 3.15535L90.5758 6.15457H87.4204L86.8008 8.6383H103.203Z" fill="black"/>
<path d="M96.4704 17.9643C95.1583 17.9643 95.0646 17.7144 95.2989 16.7771L96.913 10.3048H89.5399L88.0559 16.246C87.1447 19.9013 88.9411 20.8385 91.2843 20.8385H100.532L101.86 17.4019C101.48 17.5581 100.501 17.9643 99.0635 17.9643H96.4704Z" fill="black"/>
<path d="M87.0552 0.843262H79.807L78.8438 4.71726H86.0919L87.0552 0.843262Z" fill="black"/>
<path d="M77.7727 8.63852H85.1771L85.7967 6.15479H77.6113C77.8196 6.77962 78.0123 7.30032 77.7727 8.63852Z" fill="black"/>
<path d="M84.7602 10.3044H77.3871L75.6011 17.464C75.0961 19.4948 74.5702 20.0884 73.9453 20.8382H82.943C82.693 20.0884 82.4639 19.4948 82.9742 17.464L84.7602 10.3044Z" fill="black"/>
<path d="M55.2557 8.74247C55.2453 8.3155 55.2557 7.84687 55.3911 7.31055C55.5057 6.84192 55.6723 6.56075 55.8649 6.1546H47.1797C47.5494 7.01375 47.7212 7.42511 47.7889 8.74247H55.2557Z" fill="black"/>
<path d="M72.4023 8.74229H75.2193C75.7088 7.89876 76.3805 6.89902 77.1095 6.15442H73.048C73.1105 6.52932 73.0428 6.93547 72.9387 7.34161C72.8554 7.68007 72.6315 8.23721 72.4023 8.74229Z" fill="black"/>
<path d="M68.7572 8.74229L68.7052 6.15442H60.2386L58.9473 8.74229H68.7572Z" fill="black"/>
<path d="M71.569 10.4082L68.9603 15.5267H68.8978L68.7937 10.4082H61.4102L61.5768 20.8378H69.1998L74.3547 10.4082H71.569Z" fill="black"/>
<path d="M58.1145 10.4082L55.5579 15.5267H55.4954L55.3184 10.4082H47.8359L48.0494 20.8378H55.7662L60.9575 10.4082H58.1145Z" fill="black"/>
<path d="M45.5757 8.84649C45.6642 7.00322 44.7426 6.15448 42.1495 6.15448H30.9337C28.3354 6.15448 26.992 7.00322 26.1641 8.84649H45.5757Z" fill="#F1873A"/>
<path d="M38.1243 10.5125L37.6973 12.2151H32.5424L32.9694 10.5125H25.6015C25.5963 10.5385 25.5859 10.5645 25.5807 10.5906L24.1331 16.4016C23.3677 19.4633 23.9665 20.8379 27.2782 20.8379H41.9619L43.399 17.3388C42.0816 17.8699 41.3058 17.9637 39.8999 17.9637H32.8028C31.6156 17.9637 31.2563 17.5263 31.4906 16.464L31.8343 15.0894H44.1748L45.2943 10.5906C45.2995 10.5645 45.3048 10.5385 45.3152 10.5125H38.1243Z" fill="#F1873A"/>
</svg>
