<svg width="107" height="33" viewBox="0 0 107 33" fill="none" xmlns="http://www.w3.org/2000/svg">
<path d="M64.3995 21.4831C62.4826 21.4831 60.2588 20.3266 60.2588 17.6538V13.2707C60.2588 10.5979 62.4826 9.44141 64.3995 9.44141H72.4426C74.3349 9.44141 76.5354 10.5979 76.5354 13.2707V17.6538C76.5354 20.328 74.3349 21.4831 72.4426 21.4831H64.3995ZM71.2601 18.8103C72.5851 18.8103 73.0112 18.0151 73.0112 17.1474V13.7771C73.0112 12.9094 72.5851 12.1156 71.2601 12.1156H65.5834C64.2584 12.1156 63.7857 12.9108 63.7857 13.7771V17.1488C63.7857 18.0165 64.2351 18.8116 65.5601 18.8116H71.2601V18.8103Z" fill="black"/>
<path d="M82.0487 5.58887V21.4835H78.5479V5.58887H82.0487Z" fill="black"/>
<path d="M87.8207 5.58887V21.4835H84.3198V5.58887H87.8207Z" fill="black"/>
<path d="M93.9962 21.4831C92.0793 21.4831 89.8555 20.3266 89.8555 17.6538V13.2707C89.8555 10.5979 92.0793 9.44141 93.9962 9.44141H102.039C103.932 9.44141 106.132 10.5979 106.132 13.2707V17.6538C106.132 20.328 103.932 21.4831 102.039 21.4831H93.9962ZM100.855 18.8103C102.18 18.8103 102.607 18.0151 102.607 17.1474V13.7771C102.607 12.9094 102.18 12.1156 100.855 12.1156H95.1787C93.8537 12.1156 93.381 12.9108 93.381 13.7771V17.1488C93.381 18.0165 93.8304 18.8116 95.1554 18.8116H100.855V18.8103Z" fill="black"/>
<path d="M54.3002 9.44141H42.4727V27.0226H45.9968V23.3831H45.9927V14.8819L45.9968 14.8931V12.1142H52.904C54.3235 12.1142 54.9141 12.9094 54.9141 13.9445V16.9786C54.9141 18.0137 54.3235 18.8089 52.904 18.8089H47.6041L48.7016 21.4817H54.3002C56.3583 21.4817 58.2738 20.3015 58.2738 17.6524V13.2707C58.2738 10.6216 56.3583 9.44141 54.3002 9.44141Z" fill="black"/>
<path d="M28.5607 9.44141C26.5026 9.44141 24.4199 10.6216 24.4199 13.2707V17.6538C24.4199 20.3029 26.3368 21.4831 28.3949 21.4831H33.9921L35.0883 18.8103H29.7897C28.3702 18.8103 27.7797 18.0151 27.7797 16.98V13.9445C27.7797 12.9094 28.3716 12.1142 29.7897 12.1142H36.6969V14.8903L36.701 14.8805V21.4831H40.2224V9.44141H28.5607Z" fill="black"/>
<path d="M18.0936 15.415C16.1863 10.0581 13.6788 4.99567 10.6575 0.305664C7.69241 4.90778 5.22056 9.86842 3.32695 15.1136C2.17598 18.3026 1.2415 21.5976 0.531738 24.9763C2.74735 24.1254 5.09177 23.5436 7.52935 23.2744C8.80638 26.1886 9.8998 29.2032 10.7987 32.3043C11.6934 29.2157 12.7827 26.2123 14.0529 23.3093C16.3946 23.5911 18.6485 24.156 20.7833 24.9763C20.0968 21.7036 19.1966 18.5105 18.0936 15.415ZM11.7633 17.9929C11.4002 17.9497 11.0302 17.9246 10.6575 17.9246C10.3122 17.9246 9.97379 17.9455 9.63946 17.9804C8.84612 18.0696 8.08017 18.2594 7.36082 18.5356C7.59101 17.4349 7.8952 16.3636 8.27063 15.3243C8.88722 13.6154 9.6929 12.0014 10.6575 10.5017C11.6413 12.0279 12.4593 13.6782 13.0787 15.4219C13.4377 16.4291 13.7309 17.4698 13.9542 18.5356C13.2609 18.2691 12.5265 18.085 11.7633 17.9929Z" fill="black"/>
</svg>
