<svg width="115" height="32" viewBox="0 0 115 32" fill="none" xmlns="http://www.w3.org/2000/svg">
<path d="M48.8928 8.39771V11.873H48.6125C48.6125 10.7712 47.4692 10.7712 45.7654 10.7712H41.7119V14.6288H44.2134C45.9172 14.6288 47.0593 14.6288 47.0593 13.527H47.3396V18.1041H47.0593C47.0593 17.0023 45.916 17.0023 44.2134 17.0023H41.7119V20.8598H45.7654C47.4692 20.8598 48.936 20.8598 48.936 19.758H49.2163L48.8928 23.2333H38.0029V22.9579C39.124 22.9579 39.124 21.8342 39.124 20.1609V11.4714C39.124 9.79681 39.124 8.67437 38.0029 8.67437V8.39892H48.8928V8.39771Z" fill="black"/>
<path d="M61.3694 23.2333H50.4795V22.9579C51.6006 22.9579 51.6006 21.8342 51.6006 20.1609V11.4714C51.6006 9.79682 51.6006 8.67438 50.4795 8.67438V8.39893H55.3096V8.67438C54.1885 8.67438 54.1885 9.79803 54.1885 11.4714V20.8598H58.2419C59.9458 20.8598 61.4126 20.8598 61.4126 19.758H61.6929L61.3694 23.2333Z" fill="black"/>
<path d="M68.51 8.39771C73.6426 8.44018 76.2082 12.1278 76.2082 15.8155C76.2082 19.5032 73.6413 23.169 68.51 23.2333H62.9033V22.9579C64.0244 22.9579 64.0244 21.8342 64.0244 20.1609V11.4714C64.0244 9.79681 64.0244 8.67437 62.9033 8.67437V8.39892H68.51V8.39771ZM66.6123 20.8392H68.4014C71.8078 20.8392 73.5129 18.3164 73.5129 15.7949C73.5129 13.2721 71.8091 10.7712 68.4014 10.7712H66.6123V20.8392Z" fill="black"/>
<path d="M88.0855 8.39771V11.873H87.8052C87.8052 10.7712 86.6619 10.7712 84.9592 10.7712H80.9046V20.8598H84.9592C86.6631 20.8598 88.1287 20.8598 88.1287 19.758H88.4089L88.0855 23.2333H77.1943V22.9579C78.3167 22.9579 78.3167 21.8342 78.3167 20.1609V11.4714C78.3167 9.79681 78.3167 8.67437 77.1943 8.67437V8.39892H88.0855V8.39771ZM83.3196 18.4014V13.823H83.5999C83.5999 14.8399 84.5481 14.9249 85.9939 14.9249H90.9326V11.4714C90.9326 9.79681 90.9326 8.67437 89.8115 8.67437V8.39892H95.6985C99.1062 8.39892 100.81 10.6244 100.81 12.8705C100.81 14.545 99.8606 16.1978 97.9419 16.9392L100.163 20.1184C100.184 20.1609 100.206 20.1827 100.206 20.2034L101.543 22.1109C101.974 22.6193 102.405 22.9579 102.966 22.9579V23.2333H98.1358V22.9579C98.4802 22.9579 98.6099 22.8305 98.6099 22.64C98.6099 22.4495 98.5025 22.1946 98.3086 21.8985L95.1602 17.3202H93.5205V20.1597C93.5205 21.8342 93.5205 22.9567 94.6428 22.9567V23.2321H89.8128V22.9567C90.9339 22.9567 90.9339 21.833 90.9339 20.1597V17.2984H86.4483C84.7444 17.2984 83.6023 17.2984 83.6023 18.4014H83.3196ZM93.5193 14.9042L95.6973 14.9261C97.3369 14.9261 98.1555 13.8874 98.1555 12.8705C98.1555 11.8318 97.3357 10.7931 95.6973 10.7931H93.5193V14.9042Z" fill="black"/>
<path d="M113.707 14.1203H113.427C113.427 13.8873 113.405 13.6119 113.361 13.2721C112.972 11.2165 111.657 10.2834 108.94 10.2834C107.646 10.2834 106.395 10.7287 106.395 12.2116C106.395 14.7549 114.785 14.4152 114.785 19.6075C114.785 22.4895 111.896 23.8461 109.307 23.8461C107.085 23.8461 104.8 23.0622 103.42 21.2603H103.397L104.432 17.1491H104.712C104.842 19.0566 105.833 21.3452 109.392 21.3452C110.535 21.3452 112.239 20.9217 112.239 19.5226C112.239 16.6831 103.851 16.9792 103.851 12.1254C103.851 9.22162 106.309 7.78125 109.026 7.78125C110.988 7.78125 112.929 8.60761 114.332 9.96425L113.707 14.1203Z" fill="black"/>
<path d="M25.3804 14.3012C24.647 9.84904 20.7293 6.44531 15.9918 6.44531C10.7321 6.44531 6.46875 10.6354 6.46875 15.8047C6.46875 19.3479 8.47264 22.4301 11.4272 24.0197C12.7829 24.749 14.3374 25.164 15.9918 25.164C16.9339 25.164 17.8402 25.0244 18.6983 24.7733L19.0119 21.2445L19.0711 20.5699H18.718C18.718 21.2239 18.3328 21.5746 17.7278 21.7736C17.4858 21.8416 17.2389 21.901 16.9858 21.9399C16.8993 21.9532 16.8104 21.9568 16.7228 21.9665C16.5512 21.9823 16.3771 21.9981 16.1906 22.0054C16.0869 22.0102 15.977 22.0114 15.8696 22.0139C12.4397 21.9496 9.66781 19.1914 9.66781 15.8047C9.66781 12.3779 12.5051 9.58936 15.9918 9.58936C18.9501 9.58936 21.4331 11.5988 22.1208 14.3H19.9354C17.7871 14.3 16.3462 14.3 16.3462 12.856H15.9931V17.4088H22.0949H25.3655C25.4581 16.8858 25.5149 16.3519 25.5149 15.8034C25.5137 15.2926 25.4606 14.7926 25.3804 14.3012Z" fill="black"/>
<path d="M15.9903 31.3057C7.29445 31.3057 0.219727 24.3526 0.219727 15.8051C0.219727 7.25752 7.29445 0.305664 15.9903 0.305664C24.6862 0.305664 31.7609 7.25873 31.7609 15.8051C31.7609 24.3514 24.6874 31.3057 15.9903 31.3057ZM15.9903 1.30312C7.85499 1.30312 1.23463 7.80964 1.23463 15.8051C1.23463 23.8017 7.85499 30.3082 15.9915 30.3082C24.1281 30.3082 30.7484 23.8017 30.7484 15.8051C30.7472 7.80964 24.1269 1.30312 15.9903 1.30312Z" fill="black"/>
</svg>
