<svg width="112" height="17" fill="none" xmlns="http://www.w3.org/2000/svg"><path d="M2.265 3.894H15.41l-3.802.794L.66 12.368v3.69h16.881l.757-3.69H5.148l3.805-.794L19.9 3.894V.2H3.017l-.753 3.694zm18.552 12.165h4.811l2.291-10.571-2.659-1.594h2.817L28.834.2h-4.81l-3.208 15.86zm15.185-5.245L38.293.2h-5.336l-3.209 15.86h15.28l.756-3.691h-12.62l2.838-1.554zM66.1 1.162a2.704 2.704 0 00-.905-.703A2.697 2.697 0 0064.015.2h-11.11a2.66 2.66 0 00-1.704.59 2.491 2.491 0 00-.927 1.538l-2.772 13.73h4.811l.918-4.484h6.94l-.917 4.485h4.81L66.63 3.35a2.45 2.45 0 00-.012-1.178 2.623 2.623 0 00-.516-1.01zM61.589 4.53l-.666 3.33H53.96l.641-2.368-2.656-1.597h9.117a.52.52 0 01.413.193c.107.13.143.276.113.442zm20.064 8.222L79.11.2h-8.29l-3.207 15.86h4.808l2.382-10.956-2.68-1.593h2.841l2.544 12.549h8.269l2.586-11.022h-4.81l-1.9 7.715z" fill="#000"/><path d="M111.155 2.172a2.82 2.82 0 00-.516-1.01 2.57 2.57 0 00-.894-.703A2.69 2.69 0 00108.569.2H84.674l-.863 3.694h8.573l-2.462 12.168h14.775a4.755 4.755 0 004.103-2.287c.289-.47.489-.984.596-1.543l1.808-8.882c.073-.408.058-.8-.049-1.178zm-5.017 2.357l-1.489 7.409c-.076.288-.252.43-.526.43H95.49l1.534-6.877-2.498-1.597h11.107a.49.49 0 01.402.193c.1.13.136.276.103.442z" fill="#000"/></svg>