<svg width="115" height="32" fill="none" xmlns="http://www.w3.org/2000/svg"><path d="M48.893 8.398v3.475h-.28c0-1.102-1.144-1.102-2.848-1.102h-4.053v3.858h2.501c1.704 0 2.846 0 2.846-1.102h.28v4.577h-.28c0-1.102-1.143-1.102-2.846-1.102h-2.501v3.858h4.053c1.704 0 3.171 0 3.171-1.102h.28l-.323 3.475h-10.89v-.275c1.121 0 1.121-1.124 1.121-2.797v-8.69c0-1.674 0-2.797-1.121-2.797V8.4h10.89v-.001zM61.37 23.233H50.48v-.275c1.12 0 1.12-1.124 1.12-2.797v-8.69c0-1.674 0-2.797-1.12-2.797V8.4h4.83v.275c-1.122 0-1.122 1.124-1.122 2.797v9.389h4.054c1.704 0 3.17 0 3.17-1.102h.28l-.323 3.475zm7.14-14.835c5.133.042 7.698 3.73 7.698 7.418 0 3.687-2.567 7.353-7.698 7.417h-5.607v-.275c1.121 0 1.121-1.124 1.121-2.797v-8.69c0-1.674 0-2.797-1.12-2.797V8.4h5.606v-.001zm-1.898 12.441h1.79c3.406 0 5.11-2.523 5.11-5.044 0-2.523-1.703-5.024-5.11-5.024h-1.79V20.84zM88.085 8.398v3.475h-.28c0-1.102-1.143-1.102-2.846-1.102h-4.054V20.86h4.054c1.704 0 3.17 0 3.17-1.102h.28l-.324 3.475h-10.89v-.275c1.122 0 1.122-1.124 1.122-2.797v-8.69c0-1.674 0-2.797-1.123-2.797V8.4h10.891v-.001zM83.32 18.4v-4.578h.28c0 1.017.948 1.102 2.394 1.102h4.939V11.47c0-1.674 0-2.797-1.122-2.797V8.4h5.887c3.408 0 5.112 2.225 5.112 4.472 0 1.674-.95 3.327-2.868 4.068l2.221 3.18c.021.042.043.064.043.084l1.337 1.908c.431.508.862.847 1.423.847v.275h-4.83v-.275c.344 0 .474-.127.474-.318 0-.19-.108-.445-.301-.742L95.16 17.32h-1.64v2.84c0 1.674 0 2.797 1.123 2.797v.275h-4.83v-.275c1.12 0 1.12-1.124 1.12-2.797v-2.862h-4.485c-1.704 0-2.846 0-2.846 1.103h-.282zm10.2-3.497l2.177.022c1.64 0 2.459-1.039 2.459-2.056 0-1.038-.82-2.077-2.459-2.077H93.52v4.111zm20.187-.783h-.28c0-.233-.022-.508-.066-.848-.389-2.056-1.704-2.989-4.421-2.989-1.294 0-2.545.446-2.545 1.929 0 2.543 8.39 2.203 8.39 7.396 0 2.881-2.889 4.238-5.478 4.238-2.222 0-4.507-.784-5.887-2.586h-.023l1.035-4.11h.28c.13 1.907 1.121 4.195 4.68 4.195 1.143 0 2.847-.423 2.847-1.822 0-2.84-8.388-2.544-8.388-7.398 0-2.903 2.458-4.344 5.175-4.344 1.962 0 3.903.827 5.306 2.183l-.625 4.156zm-88.327.181c-.733-4.452-4.65-7.856-9.388-7.856-5.26 0-9.523 4.19-9.523 9.36 0 3.543 2.004 6.625 4.958 8.215a9.606 9.606 0 004.565 1.144c.942 0 1.848-.14 2.706-.39l.314-3.53.06-.674h-.354c0 .654-.385 1.005-.99 1.204a6.259 6.259 0 01-.742.166c-.087.013-.176.017-.263.026a9.923 9.923 0 01-.532.04c-.104.004-.214.005-.321.008-3.43-.064-6.202-2.823-6.202-6.21 0-3.426 2.837-6.215 6.324-6.215 2.958 0 5.441 2.01 6.129 4.711h-2.186c-2.148 0-3.589 0-3.589-1.444h-.353v4.553h9.372a9.18 9.18 0 00.15-1.606 9.444 9.444 0 00-.135-1.502z" fill="#000"/><path d="M15.99 31.306c-8.696 0-15.77-6.953-15.77-15.5 0-8.548 7.074-15.5 15.77-15.5s15.77 6.953 15.77 15.5c0 8.545-7.073 15.5-15.77 15.5zm0-30.003c-8.135 0-14.755 6.507-14.755 14.502 0 7.997 6.62 14.503 14.757 14.503 8.136 0 14.756-6.506 14.756-14.503 0-7.995-6.621-14.502-14.758-14.502z" fill="#000"/></svg>