<svg width="141" height="21" fill="none" xmlns="http://www.w3.org/2000/svg"><path d="M3.785 8.846H23.25c-.224-1.702-1.406-2.692-3.806-2.692H13.47c-1.093 0-1.755.782-2.286 1.531h-.062l.161-1.53H3.66c.219.656.422 1.197.125 2.691zm6.973 1.666H3.385l-1.73 6.952c-.51 2.03-1.03 2.624-1.655 3.374h8.998c-.25-.75-.48-1.344.03-3.374l1.73-6.952zm5.124 0l-1.734 6.952c-.505 2.03-1.031 2.624-1.656 3.374h8.998c-.25-.75-.48-1.344.031-3.374l1.49-5.967c.083-.344.145-.672.192-.985h-7.321zm120.932.016h-.76v.037h-13.491l-.542 2.181c-.359 1.812-.255 3.53 3.119 3.53h6.405c.749 0 .921.188.775.782l-.078.312c-.145.594-.411.781-1.161.781h-6.217c-2.593 0-3.192-.219-4.384-.843l-.318 3.53h13.684c3.28 0 4.905-2 5.374-3.874l.734-2.937c.338-1.78.234-3.499-3.14-3.499zm-8.499-4.373c-2.369 0-4.311 1.067-5.202 2.744h7.181a2.47 2.47 0 01.567-.058h5.718c1.718 0 3.717.25 4.134.969l.286-3.655h-12.684zm-7.741 2.483l.62-2.483h-5.874l.791-3.187-7.419.187-.745 3h-3.155l-.62 2.483h16.402zm-6.732 9.326c-1.313 0-1.406-.25-1.172-1.187l1.614-6.472h-7.373l-1.484 5.941c-.911 3.655.885 4.593 3.228 4.593h9.248l1.328-3.437c-.386.156-1.359.562-2.796.562h-2.593zm-10.639-9.326l.619-2.483h-5.873l.791-3.187-7.42.187-.744 3H87.42l-.62 2.483h16.403zm-6.733 9.326c-1.312 0-1.405-.25-1.171-1.187l1.614-6.472H89.54l-1.484 5.941c-.911 3.655.885 4.593 3.228 4.593h9.248l1.328-3.437c-.38.156-1.359.562-2.796.562H96.47zM87.055.843h-7.248l-.963 3.874h7.248l.963-3.874zm-9.282 7.796h7.404l.62-2.484H77.61c.209.625.401 1.145.162 2.484zm6.987 1.665h-7.373l-1.786 7.16c-.505 2.03-1.03 2.624-1.656 3.374h8.998c-.25-.75-.48-1.343.031-3.374l1.786-7.16zM55.256 8.742c-.01-.427 0-.895.135-1.431.115-.47.281-.75.474-1.156H47.18c.37.859.541 1.27.609 2.587h7.467zm17.146 0h2.817c.49-.843 1.162-1.843 1.89-2.588h-4.061c.063.375-.005.781-.11 1.188-.083.338-.306.895-.536 1.4zm-3.645 0l-.052-2.588H60.24l-1.292 2.588h9.81zm2.812 1.666l-2.609 5.119h-.062l-.104-5.119H61.41l.167 10.43H69.2l5.155-10.43h-2.786zm-13.455 0l-2.556 5.119h-.063l-.177-5.119h-7.482l.213 10.43h7.717l5.192-10.43h-2.843z" fill="#000"/><path d="M45.576 8.846c.088-1.843-.833-2.692-3.426-2.692H30.934c-2.599 0-3.942.85-4.77 2.692h19.412zm-7.452 1.666l-.427 1.703h-5.155l.427-1.703h-7.367c-.006.027-.016.053-.021.079l-1.448 5.81c-.765 3.062-.166 4.437 3.145 4.437h14.684l1.437-3.5c-1.317.532-2.093.626-3.5.626h-7.096c-1.187 0-1.547-.438-1.312-1.5l.343-1.375h12.34l1.12-4.498a.432.432 0 01.021-.079h-7.19z" fill="#F1873A"/></svg>