<svg width="142" height="20" fill="none" xmlns="http://www.w3.org/2000/svg"><path d="M4.285 8.003H23.75C23.525 6.3 22.343 5.31 19.943 5.31H13.97c-1.093 0-1.755.78-2.286 1.53h-.062l.161-1.53H4.16c.219.656.422 1.197.125 2.692zm6.973 1.666H3.885l-1.73 6.951c-.51 2.031-1.03 2.625-1.655 3.374h8.998c-.25-.75-.48-1.343.03-3.374l1.73-6.951zm5.124 0l-1.734 6.951c-.505 2.031-1.031 2.625-1.656 3.374h8.998c-.25-.75-.48-1.343.031-3.374l1.49-5.967c.083-.344.145-.672.192-.984h-7.321zm120.932.016h-.76v.036h-13.491l-.542 2.182c-.359 1.812-.255 3.53 3.119 3.53h6.405c.749 0 .921.188.775.781l-.078.313c-.145.593-.411.78-1.161.78h-6.217c-2.593 0-3.192-.218-4.384-.843l-.318 3.53h13.684c3.28 0 4.905-2 5.374-3.874l.734-2.936c.338-1.781.234-3.5-3.14-3.5zm-8.497-4.375c-2.369 0-4.311 1.068-5.202 2.745h7.181a2.47 2.47 0 01.567-.057h5.717c1.719 0 3.718.25 4.135.968l.286-3.655h-12.684zm-7.743 2.485l.62-2.484h-5.874l.791-3.186-7.419.187-.745 3h-3.155l-.62 2.483h16.402zm-6.732 9.325c-1.313 0-1.406-.249-1.172-1.186l1.614-6.473h-7.373l-1.484 5.942c-.911 3.655.885 4.592 3.228 4.592h9.248l1.328-3.437c-.386.157-1.359.563-2.796.563h-2.593zm-10.639-9.325l.619-2.484h-5.873l.791-3.186-7.42.187-.744 3H87.92l-.62 2.483h16.403zM96.97 17.12c-1.312 0-1.405-.249-1.171-1.186l1.614-6.473H90.04l-1.484 5.942c-.911 3.655.885 4.592 3.228 4.592h9.248l1.328-3.437c-.38.157-1.359.563-2.796.563H96.97zM87.557 0H80.31l-.963 3.874h7.248L87.557 0zm-9.284 7.795h7.404l.62-2.484H78.11c.209.625.401 1.146.162 2.484zM85.26 9.46h-7.373l-1.786 7.16c-.505 2.031-1.03 2.625-1.656 3.375h8.998c-.25-.75-.48-1.344.031-3.375l1.786-7.16zM55.756 7.899c-.01-.427 0-.896.135-1.432.115-.469.281-.75.474-1.156H47.68c.37.86.541 1.27.609 2.588h7.467zm17.146 0h2.817c.49-.844 1.162-1.844 1.89-2.588h-4.061c.063.375-.005.78-.11 1.187-.083.338-.306.896-.536 1.4zm-3.645 0l-.052-2.588H60.74l-1.292 2.588h9.81zm2.812 1.666l-2.609 5.118h-.062l-.104-5.118H61.91l.167 10.43H69.7l5.155-10.43h-2.786zm-13.455 0l-2.556 5.118h-.063l-.177-5.118h-7.482l.213 10.43h7.717l5.192-10.43h-2.843z" fill="#fff"/><path d="M46.078 8.003c.088-1.843-.834-2.692-3.427-2.692H31.436c-2.599 0-3.942.849-4.77 2.692h19.412zm-7.452 1.666l-.427 1.703h-5.155l.427-1.703h-7.367c-.006.026-.016.052-.021.078l-1.448 5.811c-.765 3.062-.167 4.436 3.145 4.436h14.684l1.437-3.499c-1.317.531-2.093.625-3.5.625h-7.096c-1.188 0-1.547-.437-1.312-1.5l.343-1.374h12.34l1.12-4.499a.434.434 0 01.021-.078h-7.19z" fill="#F1873A"/></svg>