<svg width="21" height="17" fill="none" xmlns="http://www.w3.org/2000/svg"><path d="M19.36.953H1.64C.737.953 0 1.69 0 2.593v11.813c0 .905.736 1.641 1.64 1.641h17.72c.904 0 1.64-.736 1.64-1.64V2.593c0-.905-.736-1.64-1.64-1.64z" fill="#566673"/><path d="M7.219 7.516H3.28a.656.656 0 01-.656-.657V4.234c0-.362.294-.656.656-.656h3.94c.362 0 .656.294.656.656V6.86a.656.656 0 01-.656.657z" fill="#FFD100"/><path d="M4.922 11.781h-1.64a.656.656 0 01-.657-.656v-.328c0-.363.294-.656.656-.656h1.64c.363 0 .657.293.657.656v.328a.656.656 0 01-.656.656zm4.266 0H7.546a.656.656 0 01-.656-.656v-.328c0-.363.293-.656.656-.656h1.64c.363 0 .657.293.657.656v.328a.656.656 0 01-.656.656zm4.265 0h-1.64a.656.656 0 01-.657-.656v-.328c0-.363.294-.656.656-.656h1.641c.363 0 .656.293.656.656v.328a.656.656 0 01-.656.656zm4.266 0h-1.64a.656.656 0 01-.657-.656v-.328c0-.363.294-.656.656-.656h1.64c.363 0 .657.293.657.656v.328a.656.656 0 01-.656.656z" fill="#B8BAC0"/><path d="M9.516 13.75H2.953a.328.328 0 110-.656h6.563a.328.328 0 110 .656zm4.265 0h-2.953a.328.328 0 110-.656h2.953a.328.328 0 110 .656z" fill="#8A8895"/><path d="M7.875 5.875H4.594V5.22h3.281v-.656H4.594v-.985h-.657v3.938h.657V6.53h3.281v-.656z" fill="#FF9500"/></svg>