<svg width="107" height="33" fill="none" xmlns="http://www.w3.org/2000/svg"><path d="M64.4 21.483c-1.917 0-4.141-1.156-4.141-3.83v-4.382c0-2.673 2.224-3.83 4.14-3.83h8.044c1.892 0 4.092 1.157 4.092 3.83v4.383c0 2.674-2.2 3.83-4.092 3.83H64.4zm6.86-2.673c1.325 0 1.751-.795 1.751-1.663v-3.37c0-.868-.426-1.661-1.75-1.661h-5.678c-1.325 0-1.797.795-1.797 1.661v3.372c0 .867.45 1.663 1.774 1.663h5.7v-.002zM82.049 5.589v15.894h-3.501V5.59h3.5zm5.771 0v15.894h-3.5V5.59h3.5zm6.176 15.894c-1.917 0-4.14-1.156-4.14-3.83v-4.382c0-2.673 2.223-3.83 4.14-3.83h8.043c1.893 0 4.093 1.157 4.093 3.83v4.383c0 2.674-2.2 3.83-4.093 3.83h-8.043zm6.859-2.673c1.325 0 1.752-.795 1.752-1.663v-3.37c0-.868-.427-1.661-1.752-1.661h-5.676c-1.325 0-1.798.795-1.798 1.661v3.372c0 .867.45 1.663 1.774 1.663h5.7v-.002zM54.3 9.441H42.473v17.582h3.524v-3.64h-.004v-8.501l.004.011v-2.779h6.907c1.42 0 2.01.795 2.01 1.83v3.035c0 1.035-.59 1.83-2.01 1.83h-5.3l1.098 2.673H54.3c2.058 0 3.974-1.18 3.974-3.83v-4.381c0-2.65-1.916-3.83-3.974-3.83zm-25.74 0c-2.057 0-4.14 1.18-4.14 3.83v4.383c0 2.649 1.917 3.83 3.975 3.83h5.597l1.096-2.674H29.79c-1.42 0-2.01-.795-2.01-1.83v-3.036c0-1.035.592-1.83 2.01-1.83h6.907v2.776l.004-.01v6.603h3.521V9.441H28.561zm-10.466 5.974A73.293 73.293 0 0010.657.305a73.295 73.295 0 00-7.33 14.809 73.644 73.644 0 00-2.795 9.862 28.102 28.102 0 016.997-1.702 73.419 73.419 0 013.27 9.03 73.351 73.351 0 013.254-8.995 28.1 28.1 0 016.73 1.667 73.334 73.334 0 00-2.69-9.561zm-6.33 2.578a9.369 9.369 0 00-1.106-.068c-.346 0-.684.02-1.019.055a9.24 9.24 0 00-2.278.556 23.76 23.76 0 013.297-8.034 23.776 23.776 0 013.296 8.034 9.16 9.16 0 00-2.19-.543z" fill="#000"/></svg>